<?xml version="1.0" encoding="UTF-8"?>
<svg version="1.1" xmlns="http://www.w3.org/2000/svg" width="512" height="512">
<path d="M0 0 C0.66 0 1.32 0 2 0 C2 0.66 2 1.32 2 2 C2.66 2 3.32 2 4 2 C4 2.99 4 3.98 4 5 C4.66 5 5.32 5 6 5 C6.495 8.465 6.495 8.465 7 12 C7.66 12 8.32 12 9 12 C9 12.99 9 13.98 9 15 C9.66 15 10.32 15 11 15 C11.495 18.465 11.495 18.465 12 22 C12.66 22 13.32 22 14 22 C14 23.32 14 24.64 14 26 C14.66 26 15.32 26 16 26 C16 26.99 16 27.98 16 29 C16.66 29 17.32 29 18 29 C21 34.625 21 34.625 21 38 C21.66 38 22.32 38 23 38 C23.33 40.31 23.66 42.62 24 45 C24.66 45 25.32 45 26 45 C26 45.99 26 46.98 26 48 C26.66 48 27.32 48 28 48 C31 54.625 31 54.625 31 58 C31.66 58 32.32 58 33 58 C33 59.32 33 60.64 33 62 C33.66 62 34.32 62 35 62 C35.33 63.98 35.66 65.96 36 68 C36.66 68 37.32 68 38 68 C38 69.32 38 70.64 38 72 C38.66 72 39.32 72 40 72 C40 72.99 40 73.98 40 75 C40.66 75 41.32 75 42 75 C42.33 77.31 42.66 79.62 43 82 C43.66 82 44.32 82 45 82 C48 87.625 48 87.625 48 91 C48.66 91 49.32 91 50 91 C50 91.99 50 92.98 50 94 C50.66 94 51.32 94 52 94 C55 100.625 55 100.625 55 104 C55.66 104 56.32 104 57 104 C57 105.32 57 106.64 57 108 C57.66 108 58.32 108 59 108 C59.33 110.31 59.66 112.62 60 115 C60.66 115 61.32 115 62 115 C62 115.99 62 116.98 62 118 C62.66 118 63.32 118 64 118 C64 119.32 64 120.64 64 122 C64.66 122 65.32 122 66 122 C66.33 123.98 66.66 125.96 67 128 C67.66 128 68.32 128 69 128 C69 129.32 69 130.64 69 132 C106.62 132.33 144.24 132.66 183 133 C183.33 131.35 183.66 129.7 184 128 C184.63437344 126.3207762 185.29289322 124.64991582 186 123 C186.66 123 187.32 123 188 123 C188 122.01 188 121.02 188 120 C188.66 120 189.32 120 190 120 C190.33 117.69 190.66 115.38 191 113 C191.66 113 192.32 113 193 113 C193 112.01 193 111.02 193 110 C193.66 110 194.32 110 195 110 C195.12375 108.948125 195.2475 107.89625 195.375 106.8125 C195.91140782 103.54041229 196.63880035 100.99463924 198 98 C198.66 98 199.32 98 200 98 C200 96.68 200 95.36 200 94 C200.66 94 201.32 94 202 94 C202.33 91.69 202.66 89.38 203 87 C203.66 87 204.32 87 205 87 C205 86.01 205 85.02 205 84 C205.66 84 206.32 84 207 84 C207.33 81.69 207.66 79.38 208 77 C208.66 77 209.32 77 210 77 C210.144375 76.236875 210.28875 75.47375 210.4375 74.6875 C211 72 211 72 212 69 C212.66 69 213.32 69 214 69 C214.33 66.69 214.66 64.38 215 62 C215.66 62 216.32 62 217 62 C217 60.68 217 59.36 217 58 C217.66 58 218.32 58 219 58 C219.33 55.69 219.66 53.38 220 51 C220.66 51 221.32 51 222 51 C222 50.01 222 49.02 222 48 C222.66 48 223.32 48 224 48 C224 46.35 224 44.7 224 43 C224.66 43 225.32 43 226 43 C226.33 40.69 226.66 38.38 227 36 C227.66 36 228.32 36 229 36 C229 35.01 229 34.02 229 33 C229.66 33 230.32 33 231 33 C231.33 30.69 231.66 28.38 232 26 C232.66 26 233.32 26 234 26 C234 24.68 234 23.36 234 22 C234.66 22 235.32 22 236 22 C236 21.01 236 20.02 236 19 C236.66 19 237.32 19 238 19 C238.12375 17.948125 238.2475 16.89625 238.375 15.8125 C238.91140782 12.54041229 239.63880035 9.99463924 241 7 C241.66 7 242.32 7 243 7 C243.144375 6.21625 243.28875 5.4325 243.4375 4.625 C244 2 244 2 245 0 C245.66 0 246.32 0 247 0 C247 0.66 247 1.32 247 2 C247.66 2 248.32 2 249 2 C249.13277344 2.69867188 249.26554687 3.39734375 249.40234375 4.1171875 C249.57894531 5.02726563 249.75554687 5.93734375 249.9375 6.875 C250.11152344 7.77992187 250.28554688 8.68484375 250.46484375 9.6171875 C250.89963701 11.99956317 250.89963701 11.99956317 252 14 C252.04022391 16.3329866 252.04320247 18.66706666 252 21 C252.66 21 253.32 21 254 21 C254 22.65 254 24.3 254 26 C254.66 26 255.32 26 256 26 C256.33 29.96 256.66 33.92 257 38 C257.66 38 258.32 38 259 38 C259.50904657 39.87256417 260.00682455 41.74819341 260.5 43.625 C260.91765625 45.19121094 260.91765625 45.19121094 261.34375 46.7890625 C261.99118596 49.95687418 262.1161292 52.77741467 262 56 C262.66 56 263.32 56 264 56 C264 57.98 264 59.96 264 62 C264.66 62 265.32 62 266 62 C266.50904657 63.87256417 267.00682455 65.74819341 267.5 67.625 C267.91765625 69.19121094 267.91765625 69.19121094 268.34375 70.7890625 C268.99118596 73.95687418 269.1161292 76.77741467 269 80 C269.66 80 270.32 80 271 80 C271 81.98 271 83.96 271 86 C271.66 86 272.32 86 273 86 C273.98248524 90.0527516 274.08159574 93.83861737 274 98 C274.66 98 275.32 98 276 98 C277.59138085 102.17737474 278.21278058 105.53160785 278 110 C278.66 110 279.32 110 280 110 C280.98248524 114.0527516 281.08159574 117.83861737 281 122 C281.66 122 282.32 122 283 122 C283.50744423 123.89385437 284.00564574 125.79018666 284.5 127.6875 C284.91765625 129.27111328 284.91765625 129.27111328 285.34375 130.88671875 C285.9391715 133.71142672 286.12786492 136.12836708 286 139 C286.66 139 287.32 139 288 139 C288 141.31 288 143.62 288 146 C288.66 146 289.32 146 290 146 C290.50744423 147.89385437 291.00564574 149.79018666 291.5 151.6875 C291.91765625 153.27111328 291.91765625 153.27111328 292.34375 154.88671875 C292.9391715 157.71142672 293.12786492 160.12836708 293 163 C293.66 163 294.32 163 295 163 C296.17076699 166.98060777 297.25749403 170.91621717 298 175 C299.32 175.33 300.64 175.66 302 176 C302 176.66 302 177.32 302 178 C302.66 178 303.32 178 304 178 C305.5078125 179.42578125 305.5078125 179.42578125 307.125 181.3125 C307.66382813 181.92738281 308.20265625 182.54226562 308.7578125 183.17578125 C310 185 310 185 310 188 C310.66 188 311.32 188 312 188 C312 188.66 312 189.32 312 190 C312.66 190 313.32 190 314 190 C314 190.66 314 191.32 314 192 C314.99 192.33 315.98 192.66 317 193 C317 193.66 317 194.32 317 195 C317.66 195 318.32 195 319 195 C319 195.66 319 196.32 319 197 C319.66 197 320.32 197 321 197 C322.625 198.375 322.625 198.375 324 200 C324 200.66 324 201.32 324 202 C324.66 202 325.32 202 326 202 C329 206.38461538 329 206.38461538 329 209 C329.66 209 330.32 209 331 209 C331 209.66 331 210.32 331 211 C331.99 211.33 332.98 211.66 334 212 C334 212.66 334 213.32 334 214 C334.66 214 335.32 214 336 214 C336 214.66 336 215.32 336 216 C336.99 216.33 337.98 216.66 339 217 C339 217.66 339 218.32 339 219 C339.66 219 340.32 219 341 219 C341 219.66 341 220.32 341 221 C341.66 221 342.32 221 343 221 C343 221.99 343 222.98 343 224 C343.66 224 344.32 224 345 224 C345.33 225.32 345.66 226.64 346 228 C346.598125 228.0825 347.19625 228.165 347.8125 228.25 C350.62932273 229.21576779 351.47799132 230.48868567 353 233 C353 233.66 353 234.32 353 235 C353.598125 235.2475 354.19625 235.495 354.8125 235.75 C357.31626919 237.18072525 358.48072388 238.5691582 360 241 C360 241.66 360 242.32 360 243 C360.66 243 361.32 243 362 243 C363.125 246.75 363.125 246.75 362 249 C361.34 249 360.68 249 360 249 C360 249.66 360 250.32 360 251 C359.34 251 358.68 251 358 251 C357.67 251.99 357.34 252.98 357 254 C356.34 254 355.68 254 355 254 C355 254.66 355 255.32 355 256 C354.34 256 353.68 256 353 256 C353 256.66 353 257.32 353 258 C350.94777774 260.46266672 348.82783311 261.58608345 346 263 C345.46375 263.53625 344.9275 264.0725 344.375 264.625 C343.92125 265.07875 343.4675 265.5325 343 266 C342.34 266 341.68 266 341 266 C340.731875 266.639375 340.46375 267.27875 340.1875 267.9375 C339 270 339 270 336 271 C336 271.66 336 272.32 336 273 C335.34 273 334.68 273 334 273 C333.731875 273.639375 333.46375 274.27875 333.1875 274.9375 C332 277 332 277 329 278 C329 278.66 329 279.32 329 280 C328.01 280 327.02 280 326 280 C326 280.66 326 281.32 326 282 C324.68 282.33 323.36 282.66 322 283 C321.67 284.32 321.34 285.64 321 287 C320.34 287 319.68 287 319 287 C319 287.66 319 288.32 319 289 C317.625 290.625 317.625 290.625 316 292 C315.34 292 314.68 292 314 292 C314 292.66 314 293.32 314 294 C312.68 294.33 311.36 294.66 310 295 C310 295.66 310 296.32 310 297 C309.195625 297.268125 308.39125 297.53625 307.5625 297.8125 C306.716875 298.204375 305.87125 298.59625 305 299 C304.67 299.99 304.34 300.98 304 302 C303.34 302 302.68 302 302 302 C302 302.66 302 303.32 302 304 C301.34 304 300.68 304 300 304 C300 304.66 300 305.32 300 306 C298.625 307.625 298.625 307.625 297 309 C296.34 309 295.68 309 295 309 C295 309.66 295 310.32 295 311 C289.64285714 316 289.64285714 316 286 316 C285.67 316.99 285.34 317.98 285 319 C284.34 319 283.68 319 283 319 C283 319.66 283 320.32 283 321 C282.34 321 281.68 321 281 321 C280.731875 321.639375 280.46375 322.27875 280.1875 322.9375 C279 325 279 325 276 326 C276 326.66 276 327.32 276 328 C275.34 328 274.68 328 274 328 C273.67 328.99 273.34 329.98 273 331 C272.34 331 271.68 331 271 331 C271 331.66 271 332.32 271 333 C269.35 333.66 267.7 334.32 266 335 C266 335.66 266 336.32 266 337 C264.68 337.33 263.36 337.66 262 338 C261.67 339.32 261.34 340.64 261 342 C259.68 342.33 258.36 342.66 257 343 C256.67 344.32 256.34 345.64 256 347 C254.68 347.33 253.36 347.66 252 348 C252 348.66 252 349.32 252 350 C251.34 350 250.68 350 250 350 C250 350.66 250 351.32 250 352 C249.01 352 248.02 352 247 352 C247 352.66 247 353.32 247 354 C245.625 355.625 245.625 355.625 244 357 C243.34 357 242.68 357 242 357 C242 357.66 242 358.32 242 359 C241.34 359 240.68 359 240 359 C240 359.66 240 360.32 240 361 C238.625 362.625 238.625 362.625 237 364 C236.34 364 235.68 364 235 364 C235 364.66 235 365.32 235 366 C233.13671875 367.69140625 233.13671875 367.69140625 230.6875 369.5625 C229.48673828 370.49255859 229.48673828 370.49255859 228.26171875 371.44140625 C226 373 226 373 223 374 C223 374.66 223 375.32 223 376 C222.34 376 221.68 376 221 376 C220.67 376.99 220.34 377.98 220 379 C219.34 379 218.68 379 218 379 C218 379.66 218 380.32 218 381 C217.34 381 216.68 381 216 381 C216 381.66 216 382.32 216 383 C215.34 383.33 214.68 383.66 214 384 C213.34786708 386.02463255 213.34786708 386.02463255 213 388 C212.34 388 211.68 388 211 388 C211 388.99 211 389.98 211 391 C210.34 391 209.68 391 209 391 C208.67 393.97 208.34 396.94 208 400 C207.34 400 206.68 400 206 400 C206 400.99 206 401.98 206 403 C205.34 403 204.68 403 204 403 C203.67 405.97 203.34 408.94 203 412 C202.34 412 201.68 412 201 412 C201 413.65 201 415.3 201 417 C200.34 417 199.68 417 199 417 C199 417.99 199 418.98 199 420 C198.34 420 197.68 420 197 420 C196.67 422.97 196.34 425.94 196 429 C195.34 429 194.68 429 194 429 C194 429.99 194 430.98 194 432 C193.34 432 192.68 432 192 432 C191.67 434.97 191.34 437.94 191 441 C190.34 441 189.68 441 189 441 C189 442.65 189 444.3 189 446 C188.34 446 187.68 446 187 446 C187 447.32 187 448.64 187 450 C186.34 450 185.68 450 185 450 C184.67 452.64 184.34 455.28 184 458 C183.34 458 182.68 458 182 458 C182 459.32 182 460.64 182 462 C181.34 462 180.68 462 180 462 C179.67 464.64 179.34 467.28 179 470 C178.34 470 177.68 470 177 470 C177 471.65 177 473.3 177 475 C176.34 475 175.68 475 175 475 C175 476.32 175 477.64 175 479 C174.34 479 173.68 479 173 479 C172.67 481.64 172.34 484.28 172 487 C171.34 487 170.68 487 170 487 C170 488.32 170 489.64 170 491 C169.34 491 168.68 491 168 491 C167.67 493.64 167.34 496.28 167 499 C166.34 499 165.68 499 165 499 C164.855625 499.7425 164.71125 500.485 164.5625 501.25 C164.376875 502.1575 164.19125 503.065 164 504 C163.855625 504.7425 163.71125 505.485 163.5625 506.25 C163.376875 506.8275 163.19125 507.405 163 508 C160.05753273 509.47123364 157.44814978 509.11924765 154.16357422 509.11352539 C153.46102509 509.11367142 152.75847595 509.11381744 152.03463745 509.1139679 C149.70795627 509.11327014 147.38135473 509.10548419 145.0546875 509.09765625 C143.44328861 509.09579158 141.83188916 509.09436791 140.2204895 509.09336853 C135.97571248 509.0895472 131.73096958 509.07972018 127.48620605 509.06866455 C123.15617332 509.05844218 118.82613507 509.05386914 114.49609375 509.04882812 C105.99738016 509.03809758 97.49869432 509.02102575 89 509 C89 508.34 89 507.68 89 507 C88.34 507 87.68 507 87 507 C87 505.68 87 504.36 87 503 C86.34 503 85.68 503 85 503 C85 501.68 85 500.36 85 499 C84.34 499 83.68 499 83 499 C82.67 496.36 82.34 493.72 82 491 C81.34 491 80.68 491 80 491 C80 489.68 80 488.36 80 487 C79.34 487 78.68 487 78 487 C77.67 484.36 77.34 481.72 77 479 C76.34 479 75.68 479 75 479 C75 477.68 75 476.36 75 475 C74.34 475 73.68 475 73 475 C72.49166409 473.75336669 71.99368855 472.50250613 71.5 471.25 C71.2215625 470.55390625 70.943125 469.8578125 70.65625 469.140625 C70 467 70 467 70 463 C69.34 463 68.68 463 68 463 C67.49166409 461.75336669 66.99368855 460.50250613 66.5 459.25 C66.2215625 458.55390625 65.943125 457.8578125 65.65625 457.140625 C65 455 65 455 65 451 C64.34 451 63.68 451 63 451 C62.01540929 448.6062703 61.03721297 446.2102493 60.0625 443.8125 C59.78470703 443.13896484 59.50691406 442.46542969 59.22070312 441.77148438 C57.77378944 438.19778189 56.58836871 434.83556816 56 431 C55.34 431 54.68 431 54 431 C53.49166409 429.75336669 52.99368855 428.50250613 52.5 427.25 C52.2215625 426.55390625 51.943125 425.8578125 51.65625 425.140625 C51 423 51 423 51 419 C50.34 419 49.68 419 49 419 C45.57142857 411.71428571 45.57142857 411.71428571 46 407 C45.34 407 44.68 407 44 407 C44 405.68 44 404.36 44 403 C43.34 403 42.68 403 42 403 C41.67 400.36 41.34 397.72 41 395 C40.34 395 39.68 395 39 395 C39 393.68 39 392.36 39 391 C38.34 391 37.68 391 37 391 C36.01 387.7 35.02 384.4 34 381 C33.34 381 32.68 381 32 381 C32 380.34 32 379.68 32 379 C31.01 378.67 30.02 378.34 29 378 C29 377.34 29 376.68 29 376 C28.34 376 27.68 376 27 376 C27 375.34 27 374.68 27 374 C26.4225 373.731875 25.845 373.46375 25.25 373.1875 C22.94449957 371.97070811 20.97943808 370.69666121 19 369 C19 368.34 19 367.68 19 367 C17.68 366.67 16.36 366.34 15 366 C15 365.34 15 364.68 15 364 C14.34 364 13.68 364 13 364 C10.375 361.625 10.375 361.625 8 359 C8 358.34 8 357.68 8 357 C7.34 357 6.68 357 6 357 C4.375 355.625 4.375 355.625 3 354 C3 353.34 3 352.68 3 352 C2.34 352 1.68 352 1 352 C-0.02196992 351.02246356 -1.01979625 350.0194119 -2 349 C-2.99 348.34 -3.98 347.68 -5 347 C-5 346.34 -5 345.68 -5 345 C-5.66 345 -6.32 345 -7 345 C-7 344.34 -7 343.68 -7 343 C-8.32 342.67 -9.64 342.34 -11 342 C-11.33 340.68 -11.66 339.36 -12 338 C-13.32 337.67 -14.64 337.34 -16 337 C-16 336.34 -16 335.68 -16 335 C-16.66 335 -17.32 335 -18 335 C-18.33 333.68 -18.66 332.36 -19 331 C-19.598125 330.896875 -20.19625 330.79375 -20.8125 330.6875 C-23.30869017 329.90298309 -24.25731865 328.90110692 -26 327 C-26.66 326.67 -27.32 326.34 -28 326 C-28 325.34 -28 324.68 -28 324 C-28.99 323.67 -29.98 323.34 -31 323 C-31 322.34 -31 321.68 -31 321 C-31.66 321 -32.32 321 -33 321 C-33 320.34 -33 319.68 -33 319 C-33.99 318.67 -34.98 318.34 -36 318 C-36 317.34 -36 316.68 -36 316 C-36.66 316 -37.32 316 -38 316 C-38 315.34 -38 314.68 -38 314 C-38.639375 313.731875 -39.27875 313.46375 -39.9375 313.1875 C-42 312 -42 312 -43 309 C-43.66 309 -44.32 309 -45 309 C-45 308.34 -45 307.68 -45 307 C-45.598125 306.87625 -46.19625 306.7525 -46.8125 306.625 C-49 306 -49 306 -52 304 C-52 303.34 -52 302.68 -52 302 C-52.99 301.67 -53.98 301.34 -55 301 C-55 300.34 -55 299.68 -55 299 C-55.66 299 -56.32 299 -57 299 C-57 298.34 -57 297.68 -57 297 C-57.66 297 -58.32 297 -59 297 C-60.625 295.625 -60.625 295.625 -62 294 C-62 293.34 -62 292.68 -62 292 C-62.66 292 -63.32 292 -64 292 C-64 291.34 -64 290.68 -64 290 C-64.99 289.67 -65.98 289.34 -67 289 C-67 288.34 -67 287.68 -67 287 C-67.66 287 -68.32 287 -69 287 C-69 286.34 -69 285.68 -69 285 C-69.99 285 -70.98 285 -72 285 C-72 284.34 -72 283.68 -72 283 C-73.32 282.67 -74.64 282.34 -76 282 C-76.33 280.68 -76.66 279.36 -77 278 C-78.32 277.67 -79.64 277.34 -81 277 C-81 276.34 -81 275.68 -81 275 C-81.66 275 -82.32 275 -83 275 C-83.495 273.02 -83.495 273.02 -84 271 C-85.32 270.67 -86.64 270.34 -88 270 C-88 269.34 -88 268.68 -88 268 C-88.66 268 -89.32 268 -90 268 C-91.35432675 266.68799596 -92.68733482 265.35368596 -94 264 C-94.66 263.67 -95.32 263.34 -96 263 C-96 262.34 -96 261.68 -96 261 C-96.66 261 -97.32 261 -98 261 C-98 260.34 -98 259.68 -98 259 C-98.99 258.67 -99.98 258.34 -101 258 C-101 257.34 -101 256.68 -101 256 C-101.66 256 -102.32 256 -103 256 C-103 255.34 -103 254.68 -103 254 C-104.32 253.67 -105.64 253.34 -107 253 C-107.33 251.68 -107.66 250.36 -108 249 C-108.66 249 -109.32 249 -110 249 C-110 248.34 -110 247.68 -110 247 C-110.99 246.67 -111.98 246.34 -113 246 C-112.67 244.35 -112.34 242.7 -112 241 C-110.68 240.67 -109.36 240.34 -108 240 C-107.896875 239.401875 -107.79375 238.80375 -107.6875 238.1875 C-106.90298309 235.69130983 -105.90110692 234.74268135 -104 233 C-103.505 232.01 -103.505 232.01 -103 231 C-102.34 231 -101.68 231 -101 231 C-100.67 230.01 -100.34 229.02 -100 228 C-99.34 228 -98.68 228 -98 228 C-98 227.34 -98 226.68 -98 226 C-97.34 226 -96.68 226 -96 226 C-95.67 225.01 -95.34 224.02 -95 223 C-94.34 223 -93.68 223 -93 223 C-92.9175 222.443125 -92.835 221.88625 -92.75 221.3125 C-91.76104459 218.26322081 -90.15242534 216.34810037 -88 214 C-87.34 214 -86.68 214 -86 214 C-86 213.34 -86 212.68 -86 212 C-84.625 210.375 -84.625 210.375 -83 209 C-82.34 209 -81.68 209 -81 209 C-81 208.01 -81 207.02 -81 206 C-80.34 206 -79.68 206 -79 206 C-78.731875 205.401875 -78.46375 204.80375 -78.1875 204.1875 C-77.00082594 202.00152146 -75.90400887 200.58667406 -74 199 C-73.34 199 -72.68 199 -72 199 C-71.690625 198.21625 -71.38125 197.4325 -71.0625 196.625 C-70 194 -70 194 -69 192 C-68.34 192 -67.68 192 -67 192 C-66.731875 191.360625 -66.46375 190.72125 -66.1875 190.0625 C-65 188 -65 188 -62 187 C-62 186.34 -62 185.68 -62 185 C-61.34 185 -60.68 185 -60 185 C-59.690625 184.21625 -59.38125 183.4325 -59.0625 182.625 C-58 180 -58 180 -57 178 C-56.34 178 -55.68 178 -55 178 C-54.67 177.01 -54.34 176.02 -54 175 C-53.34 175 -52.68 175 -52 175 C-52 174.34 -52 173.68 -52 173 C-51.34 173 -50.68 173 -50 173 C-50 172.34 -50 171.68 -50 171 C-49.34 171 -48.68 171 -48 171 C-47.505 167.04 -47.505 167.04 -47 163 C-46.34 163 -45.68 163 -45 163 C-45.04125 162.13375 -45.0825 161.2675 -45.125 160.375 C-44.99139334 156.76762026 -44.19714907 154.40242368 -43 151 C-41.95180713 147.01175396 -40.97263983 143.0072761 -40 139 C-39.34 139 -38.68 139 -38 139 C-38 136.69 -38 134.38 -38 132 C-37.34 132 -36.68 132 -36 132 C-35.67 128.04 -35.34 124.08 -35 120 C-34.34 120 -33.68 120 -33 120 C-33 118.35 -33 116.7 -33 115 C-32.34 115 -31.68 115 -31 115 C-31.020625 113.948125 -31.04125 112.89625 -31.0625 111.8125 C-31.01103198 108.67295096 -30.73482813 106.03116604 -30 103 C-29.34 103 -28.68 103 -28 103 C-28 100.69 -28 98.38 -28 96 C-27.34 96 -26.68 96 -26 96 C-26 94.35 -26 92.7 -26 91 C-25.34 91 -24.68 91 -24 91 C-24.061875 90.0925 -24.12375 89.185 -24.1875 88.25 C-24.22204204 82.66570424 -22.47354309 77.34159368 -21 72 C-20.34 72 -19.68 72 -19 72 C-19.020625 70.948125 -19.04125 69.89625 -19.0625 68.8125 C-19.01103198 65.67295096 -18.73482813 63.03116604 -18 60 C-17.34 60 -16.68 60 -16 60 C-16 57.69 -16 55.38 -16 53 C-15.34 53 -14.68 53 -14 53 C-14 51.35 -14 49.7 -14 48 C-13.34 48 -12.68 48 -12 48 C-12.020625 46.948125 -12.04125 45.89625 -12.0625 44.8125 C-12.01103198 41.67295096 -11.73482813 39.03116604 -11 36 C-10.34 36 -9.68 36 -9 36 C-9 33.69 -9 31.38 -9 29 C-8.34 29 -7.68 29 -7 29 C-6.92652344 27.91332031 -6.92652344 27.91332031 -6.8515625 26.8046875 C-6.44793848 21.58541133 -5.98724193 16.90186342 -4 12 C-3.34 12 -2.68 12 -2 12 C-2 9.69 -2 7.38 -2 5 C-1.34 5 -0.68 5 0 5 C0 3.35 0 1.7 0 0 Z M254 253 C252.33333333 254 250.66666667 255 249 256 C249 256.66 249 257.32 249 258 C247.68 258.33 246.36 258.66 245 259 C244.67 260.32 244.34 261.64 244 263 C243.34 263 242.68 263 242 263 C242 263.66 242 264.32 242 265 C241.4225 265.0825 240.845 265.165 240.25 265.25 C237.3774583 266.2075139 236.04910899 267.81428375 234 270 C233.34 270.33 232.68 270.66 232 271 C232 271.66 232 272.32 232 273 C231.34 273 230.68 273 230 273 C230 273.66 230 274.32 230 275 C229.34 275 228.68 275 228 275 C226.33333333 276.33333333 226.33333333 276.33333333 225 278 C225 278.66 225 279.32 225 280 C224.34 280 223.68 280 223 280 C223 280.66 223 281.32 223 282 C222.01 282.33 221.02 282.66 220 283 C220 283.66 220 284.32 220 285 C219.34 285 218.68 285 218 285 C218 285.66 218 286.32 218 287 C217.21625 287.309375 216.4325 287.61875 215.625 287.9375 C213.07669872 288.92875038 213.07669872 288.92875038 211 290 C211 290.66 211 291.32 211 292 C210.34 292 209.68 292 209 292 C207.33333333 293.33333333 207.33333333 293.33333333 206 295 C206 295.66 206 296.32 206 297 C205.34 297 204.68 297 204 297 C201.33333333 299.33333333 201.33333333 299.33333333 199 302 C199 302.66 199 303.32 199 304 C198.01 304 197.02 304 196 304 C196 304.66 196 305.32 196 306 C194.68 306.33 193.36 306.66 192 307 C191.67 308.32 191.34 309.64 191 311 C190.34 311 189.68 311 189 311 C189 311.66 189 312.32 189 313 C188.443125 313.061875 187.88625 313.12375 187.3125 313.1875 C184.00931958 314.3480769 182.28105267 316.40213446 180 319 C180 319.66 180 320.32 180 321 C179.01 321 178.02 321 177 321 C177 321.66 177 322.32 177 323 C176.34 323 175.68 323 175 323 C175 323.66 175 324.32 175 325 C174.01 325.33 173.02 325.66 172 326 C172 326.66 172 327.32 172 328 C171.34 328 170.68 328 170 328 C170 328.66 170 329.32 170 330 C169.01 330.33 168.02 330.66 167 331 C167 331.66 167 332.32 167 333 C166.34 333 165.68 333 165 333 C165 333.66 165 334.32 165 335 C162.03 335.495 162.03 335.495 159 336 C159 335.01 159 334.02 159 333 C158.34 333 157.68 333 157 333 C157 332.34 157 331.68 157 331 C156.34 331 155.68 331 155 331 C154.67 329.35 154.34 327.7 154 326 C153.34 326 152.68 326 152 326 C151.690625 325.21625 151.38125 324.4325 151.0625 323.625 C150.07124962 321.07669872 150.07124962 321.07669872 149 319 C148.34 319 147.68 319 147 319 C147 318.01 147 317.02 147 316 C146.34 316 145.68 316 145 316 C145 315.34 145 314.68 145 314 C144.34 314 143.68 314 143 314 C142.67 312.35 142.34 310.7 142 309 C141.34 309 140.68 309 140 309 C139.67 308.01 139.34 307.02 139 306 C134.54168018 305.97108454 130.08338431 305.95323019 125.625 305.9375 C124.35398438 305.92912109 123.08296875 305.92074219 121.7734375 305.91210938 C120.56171875 305.90888672 119.35 305.90566406 118.1015625 305.90234375 C116.42054443 305.89448853 116.42054443 305.89448853 114.70556641 305.88647461 C112.03132657 305.81378534 112.03132657 305.81378534 110 307 C110 307.66 110 308.32 110 309 C109.34 309 108.68 309 108 309 C107.814375 309.9590625 107.814375 309.9590625 107.625 310.9375 C107.41875 311.618125 107.2125 312.29875 107 313 C106.01 313.495 106.01 313.495 105 314 C105 315.32 105 316.64 105 318 C104.34 318 103.68 318 103 318 C100.95830515 320.90548882 100 322.40142046 100 326 C99.34 326 98.68 326 98 326 C98 326.66 98 327.32 98 328 C97.34 328 96.68 328 96 328 C95.67 329.65 95.34 331.3 95 333 C94.34 333 93.68 333 93 333 C93 333.99 93 334.98 93 336 C91.02 335.67 89.04 335.34 87 335 C87 334.34 87 333.68 87 333 C86.34 333 85.68 333 85 333 C85 332.34 85 331.68 85 331 C83.66666667 329.33333333 83.66666667 329.33333333 82 328 C81.34 328 80.68 328 80 328 C80 327.34 80 326.68 80 326 C76.77885843 323.68407978 76.77885843 323.68407978 73 323 C72.5978125 322.0409375 72.5978125 322.0409375 72.1875 321.0625 C71.11332248 318.66868314 71.11332248 318.66868314 68 318 C68 317.34 68 316.68 68 316 C67.34 316 66.68 316 66 316 C65.67 315.01 65.34 314.02 65 313 C64.34 313 63.68 313 63 313 C63 312.34 63 311.68 63 311 C62.01 311 61.02 311 60 311 C60 310.34 60 309.68 60 309 C59.34 309 58.68 309 58 309 C58 308.34 58 307.68 58 307 C56.02 306.505 56.02 306.505 54 306 C53.505 304.02 53.505 304.02 53 302 C51.02 301.505 51.02 301.505 49 301 C49 300.34 49 299.68 49 299 C48.34 299 47.68 299 47 299 C47 298.34 47 297.68 47 297 C46.01 297 45.02 297 44 297 C44 296.34 44 295.68 44 295 C42.66666667 293.33333333 42.66666667 293.33333333 41 292 C40.34 292 39.68 292 39 292 C39 291.34 39 290.68 39 290 C36.72926391 287.31256494 36.72926391 287.31256494 34 285 C33.01 285 32.02 285 31 285 C31 284.34 31 283.68 31 283 C29.68 282.67 28.36 282.34 27 282 C27 281.34 27 280.68 27 280 C26.34 280 25.68 280 25 280 C25 279.34 25 278.68 25 278 C23.66666667 276.33333333 23.66666667 276.33333333 22 275 C21.34 275 20.68 275 20 275 C20 274.34 20 273.68 20 273 C19.34 273 18.68 273 18 273 C18 272.34 18 271.68 18 271 C16.35 270.67 14.7 270.34 13 270 C12.505 268.02 12.505 268.02 12 266 C10.68 265.67 9.36 265.34 8 265 C8 264.34 8 263.68 8 263 C7.34 263 6.68 263 6 263 C5.505 261.02 5.505 261.02 5 259 C2.525 258.505 2.525 258.505 0 258 C0 257.34 0 256.68 0 256 C-0.66 256 -1.32 256 -2 256 C-2 255.34 -2 254.68 -2 254 C-3.32 253.67 -4.64 253.34 -6 253 C-6 252.34 -6 251.68 -6 251 C-15.24 251 -24.48 251 -34 251 C-29.80689777 255.20823168 -29.80689777 255.20823168 -27 255 C-27 255.66 -27 256.32 -27 257 C-26.34 257 -25.68 257 -25 257 C-24.67 257.99 -24.34 258.98 -24 260 C-23.34 260 -22.68 260 -22 260 C-22 260.66 -22 261.32 -22 262 C-21.34 262 -20.68 262 -20 262 C-20 262.66 -20 263.32 -20 264 C-18.66666667 265.66666667 -18.66666667 265.66666667 -17 267 C-16.34 267 -15.68 267 -15 267 C-15 267.66 -15 268.32 -15 269 C-12.66666667 271.66666667 -12.66666667 271.66666667 -10 274 C-9.34 274 -8.68 274 -8 274 C-8 274.66 -8 275.32 -8 276 C-4.52001493 279.63633539 -4.52001493 279.63633539 0 281 C0 281.66 0 282.32 0 283 C1.32 283.33 2.64 283.66 4 284 C4 284.66 4 285.32 4 286 C4.66 286 5.32 286 6 286 C6.33 286.99 6.66 287.98 7 289 C7.66 289 8.32 289 9 289 C9 289.66 9 290.32 9 291 C9.66 291 10.32 291 11 291 C11.33 291.99 11.66 292.98 12 294 C12.66 294 13.32 294 14 294 C14 294.66 14 295.32 14 296 C14.66 296 15.32 296 16 296 C16 296.66 16 297.32 16 298 C16.66 298 17.32 298 18 298 C18.33 298.99 18.66 299.98 19 301 C19.66 301 20.32 301 21 301 C21 301.66 21 302.32 21 303 C21.66 303 22.32 303 23 303 C23 303.66 23 304.32 23 305 C23.99 305 24.98 305 26 305 C26 305.66 26 306.32 26 307 C27.33333333 308.66666667 27.33333333 308.66666667 29 310 C29.66 310 30.32 310 31 310 C31 310.66 31 311.32 31 312 C32.98 312.495 32.98 312.495 35 313 C35.33 314.32 35.66 315.64 36 317 C37.98 317.495 37.98 317.495 40 318 C40 318.66 40 319.32 40 320 C40.66 320 41.32 320 42 320 C42.33 321.32 42.66 322.64 43 324 C44.98 324.495 44.98 324.495 47 325 C47.33 326.32 47.66 327.64 48 329 C49.98 329.495 49.98 329.495 52 330 C52 330.66 52 331.32 52 332 C52.99 332 53.98 332 55 332 C55 332.66 55 333.32 55 334 C55.66 334 56.32 334 57 334 C57 334.66 57 335.32 57 336 C58.33333333 337.66666667 58.33333333 337.66666667 60 339 C60.66 339 61.32 339 62 339 C62 339.66 62 340.32 62 341 C64.33333333 343.66666667 64.33333333 343.66666667 67 346 C67.66 346 68.32 346 69 346 C69 346.66 69 347.32 69 348 C70.33333333 349.66666667 70.33333333 349.66666667 72 351 C72.66 351 73.32 351 74 351 C74 351.66 74 352.32 74 353 C76.33333333 355.66666667 76.33333333 355.66666667 79 358 C79.66 358 80.32 358 81 358 C81 358.66 81 359.32 81 360 C84.22282413 361.07427471 86.61511153 361.1332963 90 361.125 C91.051875 361.12757813 92.10375 361.13015625 93.1875 361.1328125 C96.08126878 361.12353635 96.08126878 361.12353635 99 360 C99 359.34 99 358.68 99 358 C99.66 358 100.32 358 101 358 C103.31592022 354.77885843 103.31592022 354.77885843 104 351 C104.66 351 105.32 351 106 351 C106.33 349.35 106.66 347.7 107 346 C107.66 346 108.32 346 109 346 C109 345.01 109 344.02 109 343 C109.66 343 110.32 343 111 343 C111 342.34 111 341.68 111 341 C111.66 341 112.32 341 113 341 C113.185625 340.0409375 113.185625 340.0409375 113.375 339.0625 C113.58125 338.381875 113.7875 337.70125 114 337 C114.66 336.67 115.32 336.34 116 336 C116 334.68 116 333.36 116 332 C116.66 332 117.32 332 118 332 C120.31592022 328.77885843 120.31592022 328.77885843 121 325 C121.66 325 122.32 325 123 325 C123 324.01 123 323.02 123 322 C124.32 322 125.64 322 127 322 C127 322.66 127 323.32 127 324 C127.66 324 128.32 324 129 324 C129 324.99 129 325.98 129 327 C129.66 327 130.32 327 131 327 C131.33 328.65 131.66 330.3 132 332 C132.66 332 133.32 332 134 332 C134.17015625 332.63808594 134.3403125 333.27617187 134.515625 333.93359375 C134.75796875 334.75988281 135.0003125 335.58617187 135.25 336.4375 C135.48203125 337.26121094 135.7140625 338.08492188 135.953125 338.93359375 C136.80770679 341.19995468 136.80770679 341.19995468 139.109375 341.78515625 C139.73328125 341.85605469 140.3571875 341.92695313 141 342 C141 343.32 141 344.64 141 346 C141.66 346 142.32 346 143 346 C143.33 347.65 143.66 349.3 144 351 C144.66 351 145.32 351 146 351 C146 351.66 146 352.32 146 353 C146.66 353 147.32 353 148 353 C148.33 354.65 148.66 356.3 149 358 C149.66 358 150.32 358 151 358 C151 358.66 151 359.32 151 360 C154.24315782 360.96604701 157.18508666 361.13419024 160.5625 361.125 C161.51253906 361.12757813 162.46257812 361.13015625 163.44140625 361.1328125 C166.1212438 361.10770994 166.1212438 361.10770994 169 360 C169 359.34 169 358.68 169 358 C169.66 358 170.32 358 171 358 C173.66666667 355.66666667 173.66666667 355.66666667 176 353 C176 352.34 176 351.68 176 351 C176.66 351 177.32 351 178 351 C179.66666667 349.66666667 179.66666667 349.66666667 181 348 C181 347.34 181 346.68 181 346 C181.66 346 182.32 346 183 346 C185.66666667 343.66666667 185.66666667 343.66666667 188 341 C188 340.34 188 339.68 188 339 C188.66 339 189.32 339 190 339 C191.66666667 337.66666667 191.66666667 337.66666667 193 336 C193 335.34 193 334.68 193 334 C193.66 334 194.32 334 195 334 C197.66666667 331.66666667 197.66666667 331.66666667 200 329 C200 328.34 200 327.68 200 327 C200.66 327 201.32 327 202 327 C203.66666667 325.66666667 203.66666667 325.66666667 205 324 C205 323.34 205 322.68 205 322 C205.66 322 206.32 322 207 322 C207 321.34 207 320.68 207 320 C209.33214148 318.79371992 211.49642139 317.8345262 214 317 C214.73323796 314.98491642 214.73323796 314.98491642 215 313 C216.32 312.67 217.64 312.34 219 312 C219.33 310.68 219.66 309.36 220 308 C220.66 308 221.32 308 222 308 C222 307.34 222 306.68 222 306 C223.32 305.67 224.64 305.34 226 305 C226.33 303.68 226.66 302.36 227 301 C228.32 300.67 229.64 300.34 231 300 C231.33 298.68 231.66 297.36 232 296 C232.66 296 233.32 296 234 296 C234 295.34 234 294.68 234 294 C235.32 293.67 236.64 293.34 238 293 C238.33 291.68 238.66 290.36 239 289 C240.32 288.67 241.64 288.34 243 288 C243.33 286.68 243.66 285.36 244 284 C245.32 283.67 246.64 283.34 248 283 C248 282.34 248 281.68 248 281 C248.66 281 249.32 281 250 281 C252.66666667 278.66666667 252.66666667 278.66666667 255 276 C255 275.34 255 274.68 255 274 C255.66 274 256.32 274 257 274 C258.66666667 272.66666667 258.66666667 272.66666667 260 271 C260 270.34 260 269.68 260 269 C260.5775 268.731875 261.155 268.46375 261.75 268.1875 C264.05550043 266.97070811 266.02056192 265.69666121 268 264 C268 263.34 268 262.68 268 262 C268.66 262 269.32 262 270 262 C270 261.34 270 260.68 270 260 C271.485 259.505 271.485 259.505 273 259 C273 258.34 273 257.68 273 257 C273.66 257 274.32 257 275 257 C275 256.34 275 255.68 275 255 C275.66 255 276.32 255 277 255 C277 254.34 277 253.68 277 253 C278.485 252.505 278.485 252.505 280 252 C280 251.34 280 250.68 280 250 C280.66 250 281.32 250 282 250 C282 249.34 282 248.68 282 248 C278.27124612 247.85439805 274.54322566 247.76582957 270.8125 247.6875 C269.22985352 247.6246582 269.22985352 247.6246582 267.61523438 247.56054688 C261.24239006 247.46002883 258.05618524 247.58630116 254 253 Z " fill="#1980B5" transform="translate(125,3)"/>
</svg>
